<svg version="1.1" xmlns="http://www.w3.org/2000/svg" xmlns:xlink="http://www.w3.org/1999/xlink" x="0px" y="0px" width="512px" height="512px" viewBox="0 0 512 512" style="enable-background:new 0 0 512 512;" xml:space="preserve">
<g id="C417_x2C__Building_x2C__Christian_x2C__church_x2C__historic_x2C__monastery">
<path d="M486,481h-55V112.896l-85-80.029l-85,80.029v110.277V481h-10V225.866l-80.425-53.034c0.27-0.615,0.425-1.292,0.425-2.006
		v-28.913h35c2.761,0,5-2.239,5-5s-2.239-5-5-5h-35V103c0-2.761-2.239-5-5-5c-2.762,0-5,2.239-5,5v28.913h-35c-2.762,0-5,2.239-5,5
		s2.238,5,5,5h35v28.913c0,0.715,0.155,1.391,0.425,2.006L81,225.866V481H26c-2.762,0-5,2.238-5,5s2.238,5,5,5h460
		c2.762,0,5-2.238,5-5S488.762,481,486,481z M341,146c0-2.761,2.238-5,5-5s5,2.239,5,5v120c0,2.762-2.238,5-5,5s-5-2.238-5-5V146z
		 M201,481v-95c0-19.299-15.701-35-35-35s-35,15.701-35,35v95h-10v-95c0-24.813,20.187-45,45-45s45,20.187,45,45v95H201z" id="id_101"></path>
</g>
<g id="Layer_1">
</g>
</svg>